<svg width="109" height="198" viewBox="0 0 109 198" fill="none" xmlns="http://www.w3.org/2000/svg">
<path d="M0 158.437C26.0899 153.739 51.0482 171.081 55.7461 197.171C29.6561 201.869 4.69793 184.527 0 158.437ZM20.9619 141.76C43.0768 127.142 72.8554 133.219 87.4736 155.334C65.3587 169.952 35.5801 163.875 20.9619 141.76ZM41.7412 123.008C56.0208 100.673 85.703 94.1424 108.038 108.422C93.7586 130.757 64.0763 137.287 41.7412 123.008ZM45.5195 95.3105C49.1094 69.0452 73.3117 50.6632 99.5771 54.2529C95.9873 80.5183 71.785 98.9003 45.5195 95.3105ZM75.1611 0C81.7469 25.6785 66.2693 51.834 40.5908 58.4199C34.0049 32.7414 49.4826 6.58593 75.1611 0Z" fill="#22B6F6"/>
</svg>
