<svg width="109" height="198" viewBox="0 0 109 198" fill="none" xmlns="http://www.w3.org/2000/svg">
<path d="M108.038 158.437C81.9482 153.739 56.9899 171.081 52.292 197.171C78.382 201.869 103.34 184.527 108.038 158.437ZM87.0762 141.76C64.9612 127.142 35.1827 133.219 20.5645 155.334C42.6794 169.952 72.458 163.875 87.0762 141.76ZM66.2969 123.008C52.0173 100.673 22.3351 94.1424 0 108.422C14.2795 130.757 43.9618 137.287 66.2969 123.008ZM62.5186 95.3105C58.9287 69.0452 34.7263 50.6632 8.46094 54.2529C12.0508 80.5183 36.2531 98.9003 62.5186 95.3105ZM32.877 0C26.2912 25.6785 41.7688 51.834 67.4473 58.4199C74.0331 32.7414 58.5555 6.58593 32.877 0Z" fill="#22B6F6"/>
</svg>
