<svg width="144" height="106" viewBox="0 0 144 106" fill="none" xmlns="http://www.w3.org/2000/svg">
<path d="M123.052 36.5423C123.97 37.1871 124.869 37.832 125.787 38.4769C131.572 42.561 137.356 46.6451 143.14 50.7293C143.277 50.827 143.394 50.9247 143.629 51.1006C143.375 51.1006 143.238 51.1201 143.101 51.1201C137.258 51.1201 131.396 51.1201 125.553 51.1201C125.182 51.1201 124.928 50.9833 124.634 50.7879C114.004 43.284 103.393 35.7997 92.7626 28.3154C85.7277 23.3519 78.6928 18.3884 71.6775 13.4444C71.5602 13.3663 71.443 13.2881 71.2867 13.1904C71.1303 13.3076 70.974 13.4053 70.8372 13.5031C53.6018 25.9118 36.3859 38.301 19.1504 50.7097C18.7401 51.0028 18.3297 51.1396 17.8412 51.1396C12.1937 51.1396 6.54627 51.1396 0.898832 51.1396H0.351675L0.312592 51.0419C0.449381 50.9442 0.566628 50.827 0.703418 50.7293C4.92434 47.6808 9.16481 44.6324 13.3857 41.6035C15.7698 39.8838 18.1343 38.1837 20.5183 36.4641C20.5965 36.4055 20.6551 36.3469 20.7137 36.3078C21.1632 35.9756 21.6322 35.6629 22.0816 35.3307C22.8828 34.764 23.6645 34.1778 24.4461 33.5915C25.2278 33.0248 26.0094 32.4777 26.7911 31.911H26.8302C29.6637 29.8591 32.5167 27.8268 35.3502 25.775C36.2686 25.1106 37.1871 24.4267 38.125 23.7622C39.7861 22.5702 41.4471 21.3977 43.1081 20.1862C52.312 13.5617 61.5356 6.93717 70.7395 0.29312C70.8763 0.195413 71.0131 0.0977066 71.1694 0C71.2867 0.0781653 71.4039 0.15633 71.5016 0.234496C78.9664 5.49111 86.4117 10.7477 93.8764 16.0043C97.3743 18.4665 100.872 20.9483 104.37 23.4105C104.546 23.5278 104.722 23.645 104.898 23.7622C104.937 23.8013 104.976 23.8404 105.015 23.8795C108.767 26.5176 112.519 29.1752 116.271 31.8133C116.427 31.9305 116.603 32.0282 116.779 32.1259C117.326 32.5168 117.873 32.9271 118.42 33.318C118.733 33.5329 119.046 33.7283 119.358 33.9237C119.378 33.9628 119.397 34.0019 119.436 34.0214C120.629 34.8617 121.821 35.702 123.013 36.5423H123.052Z" fill="#044866"/>
<path d="M85.5128 42.5415C85.4151 42.561 85.2979 42.5806 85.1806 42.6197C85.2588 42.9323 85.1025 43.1082 84.868 43.2645C84.4771 43.5576 84.1059 43.8703 83.6173 43.9876C83.3828 43.9094 83.1874 44.0266 83.0311 44.1439C82.777 44.3393 82.523 44.3393 82.3081 44.1439C82.2299 44.183 82.1517 44.222 82.0736 44.222C81.9954 44.222 81.9368 44.1439 81.8586 44.1048C81.8391 44.183 81.8 44.2611 81.7609 44.3784C81.5655 44.2416 81.4092 44.1243 81.2528 44.0266C81.2528 44.2416 81.2919 44.4175 81.4873 44.5543C81.6241 44.6324 81.7218 44.8083 81.8391 44.9255C81.8 44.9255 81.7804 44.9646 81.7414 44.9646C81.7023 44.9842 81.6437 45.0037 81.6046 45.0232C81.4482 45.0819 81.2919 45.1405 81.1747 45.1991C81.0379 45.0623 80.9206 44.9646 80.8034 44.8669C80.8034 44.8669 80.7252 45.0037 80.7252 45.0623C80.7252 45.2382 80.7643 45.3945 80.8034 45.5704C80.8034 45.5704 80.7252 45.629 80.7057 45.6681C80.608 45.5899 80.5103 45.5313 80.393 45.4336C80.393 45.5899 80.393 45.6877 80.3735 45.8049C80.3539 45.8049 80.2953 45.8049 80.2953 45.8049C80.1194 45.5899 79.9631 45.7658 79.8068 45.8244C79.7677 45.8244 79.7481 45.9808 79.7677 46.0394C79.8263 46.1371 79.924 46.1566 80.0022 46.0394C80.0413 46.0589 80.0999 46.098 80.139 46.1176C80.0217 46.313 79.9045 46.5084 79.8263 46.6452H79.0251C79.201 46.821 79.3769 47.0165 79.5723 47.2119C79.4159 47.5441 79.2792 47.8763 79.1228 48.2476C79.0447 48.1889 78.986 48.1303 78.9274 48.0912C78.8297 48.1499 78.732 48.2085 78.6343 48.2671C78.5366 48.1499 78.4584 48.0522 78.3412 47.9349C78.3607 48.1108 78.3803 48.2476 78.3998 48.4234C78.5952 48.443 78.8297 48.4625 79.0837 48.5016C79.0837 48.5602 79.0837 48.6384 79.0837 48.697C79.0056 48.912 78.986 49.1465 78.7711 49.2833C78.7711 49.2833 78.7906 49.3614 78.8102 49.4005C78.732 49.5959 78.7711 49.7718 78.9665 49.8695C79.0056 50.1822 79.0447 50.4948 79.0837 50.8075C79.0837 50.8661 79.1424 50.9443 79.1619 51.0029C79.2596 51.2178 79.3378 51.4523 79.4355 51.6673C79.4746 51.7455 79.5136 51.8041 79.5527 51.8823C79.5918 51.98 79.6309 52.0581 79.67 52.1754C79.67 52.1754 79.7286 52.1754 79.7481 52.1363C79.7872 52.1167 79.8068 52.0777 79.8654 52.019C79.8654 52.1167 79.8849 52.1754 79.9045 52.2535C79.6504 52.3122 79.3769 52.3122 79.2987 52.6639C79.1033 52.5466 78.9274 52.4685 78.8102 52.3317C78.5366 52.0386 78.2044 51.98 77.8331 51.9995C77.6572 51.9995 77.4813 51.98 77.325 51.9995C77.0905 51.9995 76.9146 51.9213 76.7388 51.765C76.602 51.6478 76.4261 51.55 76.2698 51.4914C76.0158 51.4133 75.7813 51.3546 75.5663 51.1788C75.3709 51.0224 75.0191 51.0224 74.8237 50.9638C74.3938 50.4557 74.472 49.7718 73.9834 49.3419C73.8271 49.2051 73.7099 49.0097 73.788 48.7752C73.8271 48.6384 73.8076 48.5016 73.7099 48.3648C73.6512 48.3062 73.6512 48.1889 73.6708 48.0912C73.7294 47.6613 73.6317 47.4855 73.2604 47.29C73.0455 47.1728 72.8501 46.9774 72.6937 46.782C72.4983 46.5084 72.342 46.1957 72.1661 45.9026C72.127 45.8244 72.0684 45.7658 71.9902 45.7267C71.6385 45.5704 71.5212 45.2577 71.404 44.9255C71.3649 44.7887 71.3063 44.652 71.2477 44.5347C70.9936 44.0462 70.7005 43.5772 70.5442 43.03C70.4856 42.8151 70.3292 42.561 70.1338 42.4633C69.8016 42.2484 69.5671 41.9357 69.2349 41.7012C69.02 41.5449 68.7659 41.3495 68.6487 41.0954C68.5314 40.8609 68.3556 40.8609 68.1601 40.8414C67.6911 40.8219 67.2026 40.8414 66.7336 40.7828C66.5187 40.7632 66.3428 40.6264 66.1083 40.5287C65.9911 40.7632 65.7956 40.9 65.5221 40.9C65.2876 40.9 65.0921 41.0368 65.014 41.2908C64.8772 41.7012 64.7013 42.1116 64.545 42.4633C64.4473 42.6001 64.3496 42.7565 64.2519 42.8932C64.1542 43.0105 64.0565 43.1277 63.9392 43.2645C63.5875 43.2645 63.2553 43.1668 62.9621 42.9128C62.884 42.8346 62.7667 42.8151 62.669 42.7564C62.4932 42.6392 62.3368 42.5024 62.1414 42.4242C61.9655 42.3461 61.7506 42.3265 61.5552 42.2679C61.5161 42.2679 61.477 42.2093 61.4575 42.1898C61.1839 41.9553 60.9298 41.6817 60.5781 41.5253C60.4022 41.4472 60.3045 41.2127 60.1873 41.0368C60.0896 40.9 60.0114 40.7437 59.9528 40.5678C59.8942 40.3529 59.816 40.1184 59.816 39.9034C59.816 39.708 59.7769 39.5517 59.6597 39.3953C59.5229 39.1804 59.4642 38.9264 59.3275 38.6919C59.2102 38.4769 59.0734 38.2619 58.8975 38.1252C58.7021 37.9493 58.4286 37.8516 58.2136 37.6952C57.9596 37.5194 57.7251 37.3435 57.5101 37.1286C57.1193 36.7573 56.7675 36.3664 56.3963 35.9952C56.3376 35.9365 56.2399 35.8974 56.1618 35.8779C55.8296 35.7802 55.6341 35.5457 55.5169 35.233C55.4387 35.0181 55.3215 34.8422 55.0479 34.764C54.7353 34.6663 54.5985 34.3928 54.5789 34.0215H64.1346C64.1542 29.1948 64.1737 24.4072 64.1933 19.5804H72.3029V25.775C72.6546 25.8141 72.8501 26.0486 73.0455 26.2636C73.1627 26.3808 73.28 26.459 73.4558 26.3808C73.5535 26.3417 73.7099 26.3808 73.8662 26.3808C73.8857 26.3417 73.9444 26.2831 73.9834 26.205C74.1398 26.1268 74.4134 26.4981 74.472 26.8498C74.8433 26.9475 75.2146 27.0452 75.5858 27.1429C75.6445 27.1429 75.7422 27.182 75.8008 27.1429C75.9767 27.0452 76.0939 27.1429 76.2112 27.2602C76.2698 27.3188 76.4457 27.3774 76.4652 27.3579C76.6997 27.0648 77.0319 27.2602 77.3446 27.1429C77.3641 27.4165 77.4227 27.651 77.7354 27.651C77.7354 27.7096 77.7549 27.7683 77.7745 27.8073C77.8135 28.0614 77.9308 28.1395 78.1262 28.0028C78.2825 27.905 78.4193 27.7683 78.5952 27.6119C78.6929 27.9441 79.0447 27.9441 79.201 28.1786C79.3964 28.1005 79.5723 28.0223 79.7872 27.9441C79.8849 28.12 79.6504 28.4131 79.9826 28.4913C80.139 28.2568 80.2758 28.0028 80.4321 27.7683C80.647 27.905 80.8425 28.0223 81.077 28.1786C81.1551 28.0614 81.2137 27.9832 81.2333 27.9246C81.5459 28.1395 81.8195 28.335 82.0736 28.5108C82.4253 28.335 82.7575 28.1786 83.0897 28.0223C83.1092 28.0223 83.1483 28.0028 83.1679 28.0028C83.3047 28.0614 83.4415 28.1395 83.6173 28.0028C83.7346 27.905 83.9104 27.8855 84.0277 27.8269C84.2231 27.905 84.399 28.0223 84.5749 28.0223C84.7312 28.0223 84.9071 27.8855 85.122 27.7683C85.2979 27.866 85.5715 27.9637 85.7473 28.1395C85.9818 28.3936 86.2749 28.4717 86.5485 28.6085C86.7635 28.7062 87.0175 28.7258 87.1934 28.9212C87.252 28.9798 87.3693 28.9603 87.467 28.9798C87.6819 28.9798 87.9164 28.9798 88.19 28.9798C88.19 29.1752 88.19 29.312 88.19 29.4684C88.19 30.8558 88.19 32.2237 88.19 33.6111C88.19 33.8847 88.2486 34.0801 88.4636 34.256C88.6981 34.4514 88.7958 34.7054 88.7958 35.0181C88.7958 35.0963 88.7567 35.233 88.7958 35.2721C89.0694 35.5457 89.1084 35.9365 89.3038 36.2492C89.6947 36.855 89.5579 37.4803 89.2452 38.047C89.0498 38.3792 89.0889 38.7309 88.9716 39.0631C88.9326 39.1999 89.0107 39.3953 89.0498 39.5517C89.1084 39.8253 89.0303 40.0207 88.7958 40.1965C88.6981 40.2552 88.6394 40.3529 88.5613 40.4506C88.4049 40.6264 88.3854 40.8023 88.5613 40.9782C88.5808 40.9977 88.6004 41.0564 88.6199 41.1345C87.9946 41.0564 87.5451 41.4472 87.0175 41.6035C86.9589 41.5644 86.9003 41.5253 86.8221 41.4863C86.6267 41.5058 86.4313 41.5253 86.2163 41.5644C86.2749 41.4081 86.3336 41.2518 86.3531 41.115C86.3531 41.0368 86.314 40.9 86.2554 40.8609C86.1968 40.8414 86.0795 40.9 86.0014 40.9586C85.9427 40.9977 85.9037 41.0954 85.8646 41.1736C85.7473 41.1345 85.6496 41.0759 85.4542 40.9977C85.6496 41.2518 85.4347 41.5644 85.7473 41.7012C85.6496 41.8966 86.0404 42.053 85.8059 42.2679C85.6887 42.307 85.5128 42.3265 85.5715 42.522C85.5324 42.561 85.5128 42.5806 85.4737 42.6197L85.5128 42.5415ZM85.6105 40.0597C85.2783 40.0011 85.0438 39.9425 84.8093 39.9034C84.6139 39.8643 84.4771 39.7862 84.3794 39.5908C84.2622 39.3563 84.1254 39.1413 83.9886 38.8873C83.8323 39.1413 83.6955 39.3563 83.5978 39.5712C83.5001 39.7862 83.3437 39.8643 83.1288 39.9034C82.8943 39.9425 82.6598 40.0011 82.3471 40.0597C82.5621 40.2942 82.7184 40.4897 82.9138 40.6655C83.0506 40.8023 83.1093 40.9391 83.0702 41.1345C83.0311 41.3886 83.0115 41.6621 82.9725 41.9748C83.246 41.8575 83.461 41.7598 83.6564 41.6621C83.8714 41.5449 84.0472 41.5253 84.2622 41.6621C84.4771 41.7794 84.6921 41.8771 84.9657 41.9943C84.9266 41.7403 84.9266 41.5449 84.8875 41.3495C84.8289 41.0368 84.8875 40.7828 85.1415 40.5874C85.2979 40.4701 85.4151 40.2942 85.591 40.0988L85.6105 40.0597Z" fill="#980000"/>
<path d="M123.052 36.5423C121.86 35.702 120.668 34.8618 119.476 34.0215C119.436 34.0019 119.417 33.9629 119.397 33.9238C119.495 33.7674 119.554 33.5916 119.671 33.4548C120.394 32.595 121.137 31.7547 121.879 30.8949C122.856 29.7615 123.833 28.6085 124.81 27.4556C125.416 26.7326 126.041 26.0486 126.667 25.3256C127.038 24.8957 127.39 24.4658 127.761 24.0359C127.976 23.7818 128.054 23.7818 128.269 24.0359C128.679 24.4853 129.07 24.9543 129.461 25.4038C129.774 25.7555 130.086 26.1268 130.38 26.4981C131.083 27.3188 131.767 28.12 132.471 28.9212C133.135 29.6833 133.819 30.4454 134.483 31.2075C135.109 31.9306 135.734 32.6927 136.359 33.4157C136.809 33.9238 137.258 34.4318 137.708 34.9595C138.157 35.4675 138.587 35.9952 139.036 36.5032C139.29 36.8159 139.564 37.109 139.838 37.4217C140.658 38.3597 141.479 39.2976 142.3 40.2356C142.691 40.6851 143.101 41.1541 143.492 41.6035C143.55 41.6817 143.59 41.7598 143.668 41.8966C143.531 41.9162 143.433 41.9553 143.355 41.9553C141.616 41.9553 139.877 41.9553 138.138 41.9553C137.923 41.9553 137.766 41.8966 137.649 41.7403C137.141 41.1541 136.613 40.5678 136.105 39.9816C135.812 39.6494 135.519 39.2976 135.226 38.9654C134.542 38.1642 133.858 37.363 133.154 36.5619C132.725 36.0733 132.295 35.5848 131.865 35.0963C131.161 34.2755 130.458 33.4548 129.735 32.634C129.188 32.0087 128.621 31.3834 128.035 30.719C127.898 30.8558 127.781 30.9535 127.663 31.0903C126.999 31.8524 126.354 32.634 125.69 33.3962C125.084 34.0996 124.498 34.8031 123.892 35.5066C123.677 35.7607 123.442 36.0147 123.247 36.2687C123.169 36.3469 123.13 36.4641 123.071 36.5619L123.052 36.5423Z" fill="#B4D1DE"/>
<path d="M24.4656 33.5916C23.6839 34.1778 22.8827 34.7445 22.1011 35.3308C21.6516 35.663 21.1826 35.9756 20.7332 36.3078C20.5769 36.0734 20.4205 35.8193 20.2447 35.6044C19.6584 34.9204 19.0722 34.256 18.4859 33.5721C17.7238 32.6732 16.9617 31.7547 16.1801 30.8558C16.141 30.8167 16.1019 30.7777 16.0042 30.719C15.7502 30.9926 15.4961 31.2662 15.2616 31.5398C14.949 31.8915 14.6363 32.2628 14.3236 32.6341C13.6592 33.4157 12.9948 34.1974 12.3109 34.9595C11.8614 35.4871 11.3924 35.9952 10.943 36.5228C10.2981 37.2849 9.65326 38.047 8.98886 38.7896C8.53941 39.3172 8.07041 39.8253 7.62096 40.3529C7.23014 40.8023 6.81977 41.2713 6.42894 41.7208C6.29215 41.8771 6.13582 41.9357 5.94041 41.9357C4.16215 41.9357 2.40343 41.9357 0.625171 41.9357C0.547006 41.9357 0.468841 41.9357 0.292969 41.8967C0.527465 41.6035 0.742419 41.3495 0.937832 41.0955C1.46545 40.4701 2.01261 39.8448 2.55976 39.2195C3.00921 38.7114 3.45866 38.2034 3.90811 37.6953C4.55298 36.9332 5.19784 36.1711 5.86225 35.4285C6.3117 34.9009 6.78069 34.3928 7.23014 33.8652C7.91408 33.0835 8.57849 32.2823 9.26244 31.5007C9.73143 30.9731 10.2004 30.4454 10.6694 29.8983C11.1579 29.3511 11.6269 28.7844 12.1155 28.2177C12.5258 27.7292 12.9557 27.2602 13.3661 26.7717C13.8546 26.205 14.3432 25.6187 14.8317 25.052C15.203 24.6221 15.5938 24.2313 16.0042 23.7819C16.1801 23.9577 16.3364 24.1141 16.4732 24.2704C16.9422 24.8176 17.4112 25.3647 17.8802 25.9119C18.4859 26.6349 19.0917 27.3384 19.6975 28.0614C20.1079 28.5499 20.5378 29.0189 20.9481 29.5075C21.3976 30.0351 21.847 30.5627 22.2965 31.0903C22.6287 31.4811 22.9414 31.872 23.2736 32.2433C23.6644 32.6927 24.0552 33.1226 24.446 33.5721L24.4656 33.5916Z" fill="#B4D1DE"/>
<path d="M116.799 32.1259C116.623 32.0282 116.447 31.9305 116.29 31.8132C112.539 29.1752 108.787 26.5175 105.035 23.8795C104.996 23.8404 104.956 23.8013 104.917 23.7622C105.113 23.7622 105.289 23.7622 105.484 23.7622C111.503 23.7622 117.522 23.7622 123.54 23.7622H124.146C124.048 23.9381 124.009 24.0358 123.951 24.114C123.208 24.9542 122.446 25.7945 121.703 26.6348C120.687 27.7877 119.671 28.9602 118.655 30.1327C118.205 30.6603 117.756 31.1879 117.307 31.7155C117.17 31.8719 116.974 31.9891 116.818 32.1259H116.799Z" fill="#B4D1DE"/>
<path d="M38.1448 23.7622C37.2263 24.4266 36.3079 25.1106 35.3699 25.775C32.5364 27.8268 29.6834 29.8787 26.8499 31.9109C26.8499 31.9109 26.8304 31.9109 26.8108 31.9109C26.674 31.7155 26.5568 31.5006 26.4004 31.3052C25.951 30.7776 25.482 30.2695 25.0326 29.7419C24.5049 29.1361 23.9773 28.5108 23.4497 27.905C22.9416 27.3383 22.4336 26.7716 21.9255 26.1853C21.2415 25.4037 20.5576 24.622 19.8346 23.8013C19.9714 23.7622 20.0495 23.7427 20.1472 23.7427C20.3622 23.7427 20.5771 23.7427 20.7921 23.7427C26.4982 23.7427 32.2238 23.7427 37.9298 23.7427C38.008 23.7427 38.0666 23.7427 38.1448 23.7427V23.7622Z" fill="#B4D1DE"/>
<path d="M85.6106 40.0597C85.4347 40.2551 85.3174 40.4115 85.1611 40.5482C84.9071 40.7632 84.8484 41.0172 84.9071 41.3104C84.9462 41.5058 84.9657 41.7012 84.9852 41.9552C84.7117 41.838 84.4772 41.7403 84.2817 41.623C84.0668 41.5058 83.8909 41.5253 83.676 41.623C83.4806 41.7403 83.2656 41.8184 82.992 41.9357C83.0311 41.623 83.0506 41.369 83.0897 41.0954C83.1288 40.9 83.0702 40.7632 82.9334 40.6264C82.7575 40.4505 82.5817 40.2551 82.3667 40.0206C82.6794 39.962 82.9139 39.9034 83.1483 39.8643C83.3633 39.8252 83.5196 39.747 83.6173 39.5321C83.715 39.3171 83.8518 39.1022 84.0082 38.8481C84.1645 39.1022 84.3013 39.3171 84.399 39.5516C84.4967 39.747 84.6139 39.8448 84.8289 39.8643C85.0634 39.9034 85.3174 39.962 85.6301 40.0206L85.6106 40.0597Z" fill="white"/>
<path d="M80.8033 45.5117C80.8033 45.5117 80.7251 45.5703 80.7056 45.6094C80.7446 45.5703 80.7837 45.5508 80.8033 45.5117Z" fill="#E9CACA"/>
<path d="M144 53.2305H0V95.3029H144V53.2305Z" fill="#980000"/>
<path d="M144 97.3939H0V105.777H144V97.3939Z" fill="#044866"/>
<path d="M77.0515 78.6147C78.7125 77.8331 80.0413 76.6215 81.0183 74.9996C82.1322 73.1627 82.6989 70.8373 82.6989 68.1015C82.6989 64.5645 81.7609 61.7896 79.8849 59.8355C78.009 57.8814 75.3318 56.8848 71.9121 56.8848H62.4932V91.7856H68.9027V79.709H70.6224L77.325 91.7856H84.4967L77.0319 78.6343L77.0515 78.6147ZM68.9223 63.0403H71.873C73.7099 63.0403 76.1721 63.5679 76.1721 68.1797C76.1721 69.9775 75.8008 71.3453 75.0778 72.2442C74.3743 73.1041 73.3191 73.5144 71.8535 73.5144H68.9418V63.0403H68.9223Z" fill="white"/>
<path d="M47.8176 56.8652H41.3885L32.6144 91.766H39.3171L40.8413 85.0634H48.3647L49.928 91.766H56.5916L47.8176 56.8652ZM44.0852 71.0327C44.222 70.4855 44.3392 69.8798 44.476 69.2153C44.5347 68.9222 44.5933 68.6487 44.6324 68.3555L44.7691 69.1958C44.8864 69.8602 45.0036 70.4855 45.1404 71.0327L46.9969 78.986H42.2483L44.0657 71.0327H44.0852Z" fill="white"/>
<path d="M20.2448 56.8652V71.0522H12.4283V56.8652H6.01875V91.766H12.4283V77.1687H20.2448V91.766H26.6544V56.8652H20.2448Z" fill="white"/>
<path d="M104.839 80.5688L104.78 81.2918C104.507 84.6139 103.08 86.1772 100.306 86.1772C99.0744 86.1772 98.1364 85.8059 97.4134 85.0242C96.7099 84.2426 96.3386 82.9528 96.3386 81.155V67.4566C96.3386 65.6783 96.6904 64.3495 97.3938 63.5679C98.0778 62.7862 98.9962 62.4149 100.188 62.4149C101.595 62.4149 102.592 62.7667 103.295 63.5092C103.999 64.2713 104.448 65.5611 104.585 67.3393L104.644 68.0819H110.975L110.936 67.2416C110.76 63.7242 109.764 60.9884 107.927 59.1124C106.09 57.2169 103.491 56.2594 100.247 56.2594C97.003 56.2594 94.5408 57.2365 92.6648 59.1711C90.7889 61.0861 89.8509 63.8805 89.8509 67.4761V81.1746C89.8509 84.7311 90.8084 87.5255 92.7039 89.4406C94.5994 91.3752 97.1593 92.3522 100.325 92.3522C103.491 92.3522 106.227 91.3947 108.102 89.4992C109.959 87.6232 110.995 84.907 111.17 81.4091L111.21 80.5688H104.878H104.839Z" fill="white"/>
<path d="M129.207 56.8652H122.778L114.004 91.766H120.707L122.231 85.0634H129.754L131.318 91.766H137.981L129.207 56.8652ZM125.455 71.0327C125.592 70.4855 125.709 69.8798 125.846 69.2153C125.905 68.9222 125.963 68.6487 126.002 68.3555L126.139 69.1958C126.256 69.8602 126.374 70.4855 126.511 71.0327L128.367 78.986H123.618L125.436 71.0327H125.455Z" fill="white"/>
<path d="M8.85209 99.7389V103.51H8.30493V101.869H7.2497V103.51H6.70255V99.7389H7.2497V101.341H8.30493V99.7389H8.85209Z" fill="white"/>
<path d="M11.2363 103.569C10.8651 103.569 10.5915 103.452 10.3961 103.237C10.2007 103.022 10.0834 102.709 10.0834 102.318V100.951C10.0834 100.56 10.1811 100.247 10.3961 100.032C10.611 99.8172 10.8846 99.7 11.2363 99.7C11.5881 99.7 11.8812 99.8172 12.0766 100.032C12.272 100.247 12.3893 100.56 12.3893 100.951V102.318C12.3893 102.709 12.2916 103.022 12.0766 103.237C11.8812 103.452 11.5881 103.569 11.2363 103.569ZM11.2363 103.042C11.4318 103.042 11.5685 102.983 11.6858 102.846C11.803 102.709 11.8421 102.533 11.8421 102.299V100.931C11.8421 100.697 11.7835 100.521 11.6858 100.384C11.5881 100.247 11.4318 100.188 11.2363 100.188C11.0409 100.188 10.8846 100.247 10.7869 100.384C10.6892 100.521 10.6306 100.697 10.6306 100.931V102.299C10.6306 102.533 10.6892 102.709 10.7869 102.846C10.8846 102.983 11.0409 103.042 11.2363 103.042Z" fill="white"/>
<path d="M14.656 103.549C14.3238 103.549 14.0503 103.452 13.8353 103.237C13.6399 103.022 13.5422 102.729 13.5422 102.338V99.7389H14.1089V102.338C14.1089 102.572 14.1675 102.748 14.2652 102.866C14.3629 102.983 14.4997 103.041 14.6756 103.041C14.8514 103.041 14.9882 102.983 15.0859 102.866C15.1836 102.748 15.2227 102.572 15.2227 102.338V99.7389H15.7894V102.338C15.7894 102.729 15.6917 103.022 15.4963 103.237C15.3009 103.452 15.0273 103.549 14.6951 103.549H14.656Z" fill="white"/>
<path d="M17.8999 103.569C17.5677 103.569 17.2941 103.471 17.0987 103.276C16.9033 103.081 16.8056 102.807 16.8056 102.455H17.3527C17.3527 102.651 17.4114 102.787 17.5091 102.885C17.6068 102.983 17.7436 103.022 17.8999 103.022C18.0758 103.022 18.2125 102.983 18.3103 102.885C18.408 102.787 18.447 102.67 18.447 102.514C18.447 102.397 18.408 102.279 18.3298 102.182C18.2516 102.084 18.1539 102.006 18.0367 101.928C17.9194 101.849 17.7826 101.771 17.6654 101.693C17.5481 101.615 17.4114 101.517 17.2941 101.419C17.1769 101.322 17.0792 101.205 17.001 101.068C16.9228 100.931 16.8837 100.775 16.8837 100.599C16.8837 100.462 16.9033 100.345 16.9619 100.227C17.001 100.11 17.0792 100.013 17.1769 99.9344C17.2746 99.8562 17.3723 99.778 17.5091 99.7389C17.6263 99.6999 17.7826 99.6608 17.939 99.6608C18.2712 99.6608 18.5252 99.7585 18.7011 99.9539C18.877 100.149 18.9747 100.403 18.9942 100.716H18.447C18.447 100.54 18.3884 100.403 18.3103 100.306C18.2321 100.208 18.1148 100.169 17.9585 100.169C17.8022 100.169 17.6849 100.208 17.6068 100.286C17.5286 100.364 17.4895 100.482 17.4895 100.599C17.4895 100.716 17.5286 100.833 17.6068 100.911C17.6849 100.99 17.7826 101.087 17.8999 101.165C18.0171 101.244 18.1344 101.322 18.2712 101.4C18.408 101.478 18.5252 101.556 18.6425 101.654C18.7597 101.752 18.8574 101.869 18.9356 102.006C19.0137 102.143 19.0528 102.299 19.0528 102.494C19.0528 102.631 19.0333 102.768 18.9747 102.885C18.916 103.002 18.8574 103.12 18.7597 103.217C18.662 103.315 18.5447 103.393 18.408 103.452C18.2712 103.51 18.1148 103.53 17.939 103.53L17.8999 103.569Z" fill="white"/>
<path d="M21.9254 100.247H21.1438V103.491H20.5966V100.247H19.8149V99.7389H21.9254V100.247Z" fill="white"/>
<path d="M24.0162 103.569C23.6449 103.569 23.3714 103.452 23.1759 103.237C22.9805 103.022 22.8633 102.709 22.8633 102.318V100.951C22.8633 100.56 22.961 100.247 23.1759 100.032C23.3909 99.8172 23.6645 99.7 24.0162 99.7C24.368 99.7 24.6611 99.8172 24.8565 100.032C25.0519 100.247 25.1692 100.56 25.1692 100.951V102.318C25.1692 102.709 25.0715 103.022 24.8565 103.237C24.6611 103.452 24.368 103.569 24.0162 103.569ZM24.0162 103.042C24.2116 103.042 24.3484 102.983 24.4657 102.846C24.5829 102.709 24.622 102.533 24.622 102.299V100.931C24.622 100.697 24.5634 100.521 24.4657 100.384C24.368 100.247 24.2116 100.188 24.0162 100.188C23.8208 100.188 23.6645 100.247 23.5668 100.384C23.4691 100.521 23.4104 100.697 23.4104 100.931V102.299C23.4104 102.533 23.4691 102.709 23.5668 102.846C23.6645 102.983 23.8208 103.042 24.0162 103.042Z" fill="white"/>
<path d="M28.6084 99.7389V103.51H28.0613L27.221 101.673C27.221 101.673 27.1624 101.517 27.1233 101.439C27.0842 101.361 27.0647 101.283 27.0256 101.204C26.9865 101.126 26.9669 101.048 26.9279 100.97C26.8888 100.892 26.8692 100.833 26.8497 100.755C26.8497 100.853 26.8497 100.97 26.8692 101.087C26.8692 101.204 26.8692 101.322 26.8692 101.439C26.8692 101.556 26.8692 101.673 26.8692 101.771C26.8692 101.888 26.8692 101.986 26.8692 102.064V103.51H26.3221V99.7389H26.8692L27.7291 101.654C27.7291 101.654 27.7877 101.791 27.8268 101.849C27.8658 101.928 27.8854 101.986 27.9245 102.064C27.9636 102.142 27.9831 102.201 28.0222 102.279C28.0417 102.357 28.0808 102.416 28.1003 102.475C28.1003 102.377 28.0808 102.26 28.0613 102.162C28.0613 102.045 28.0613 101.928 28.0417 101.83C28.0222 101.732 28.0417 101.595 28.0417 101.498C28.0417 101.4 28.0417 101.302 28.0417 101.204V99.7389H28.5889H28.6084Z" fill="white"/>
<path d="M32.9465 102.748H31.9499L31.774 103.51H31.2073L32.1453 99.7389H32.7316L33.6695 103.51H33.1028L32.927 102.748H32.9465ZM32.8293 102.24L32.5948 101.224C32.5948 101.224 32.5752 101.087 32.5557 101.029L32.5166 100.814C32.5166 100.814 32.4971 100.677 32.4775 100.599C32.458 100.521 32.4775 100.481 32.458 100.423C32.458 100.423 32.458 100.54 32.4384 100.599C32.4384 100.657 32.4384 100.735 32.3994 100.814C32.3603 100.892 32.3798 100.97 32.3603 101.029C32.3407 101.087 32.3407 101.165 32.3212 101.224L32.0867 102.24H32.8488H32.8293Z" fill="white"/>
<path d="M35.5651 102.123H35.2329V103.491H34.6857V99.7194H35.6628C36.0341 99.7194 36.3077 99.8171 36.5031 100.032C36.6985 100.247 36.7962 100.521 36.7962 100.911C36.7962 101.205 36.7376 101.459 36.6203 101.654C36.5031 101.849 36.3272 101.986 36.1122 102.064L36.933 103.51H36.3272L35.5651 102.142V102.123ZM35.2133 101.615H35.6237C35.8191 101.615 35.9559 101.556 36.0536 101.439C36.1513 101.322 36.1904 101.146 36.1904 100.931C36.1904 100.481 35.995 100.267 35.6237 100.267H35.1938V101.634L35.2133 101.615Z" fill="white"/>
<path d="M39.8643 102.983V103.491H37.9688V99.7194H39.8056V100.227H38.4964V101.322H39.6884V101.83H38.4964V102.983H39.8447H39.8643Z" fill="white"/>
<path d="M42.4243 102.748H41.4277L41.2519 103.51H40.6852L41.6231 99.7389H42.2094L43.1474 103.51H42.5807L42.4048 102.748H42.4243ZM42.3071 102.24L42.0726 101.224C42.0726 101.224 42.053 101.087 42.0335 101.029L41.9944 100.814C41.9944 100.814 41.9749 100.677 41.9553 100.599C41.9358 100.521 41.9553 100.481 41.9358 100.423C41.9358 100.423 41.9358 100.54 41.9163 100.599C41.9163 100.657 41.9163 100.735 41.8772 100.814C41.8381 100.892 41.8576 100.97 41.8381 101.029C41.8185 101.087 41.8185 101.165 41.799 101.224L41.5645 102.24H42.3266H42.3071Z" fill="white"/>
<path d="M46.6255 102.123H46.2933V103.491H45.7462V99.7194H46.7233C47.0945 99.7194 47.3681 99.8171 47.5635 100.032C47.7589 100.247 47.8567 100.521 47.8567 100.911C47.8567 101.205 47.798 101.459 47.6808 101.654C47.5635 101.849 47.3877 101.986 47.1727 102.064L47.9934 103.51H47.3877L46.6255 102.142V102.123ZM46.2933 101.615H46.7037C46.8991 101.615 47.0359 101.556 47.1336 101.439C47.2313 101.322 47.2704 101.146 47.2704 100.931C47.2704 100.481 47.075 100.267 46.7037 100.267H46.2738V101.634L46.2933 101.615Z" fill="white"/>
<path d="M50.0843 103.569C49.713 103.569 49.4394 103.452 49.244 103.237C49.0486 103.022 48.9313 102.709 48.9313 102.318V100.951C48.9313 100.56 49.029 100.247 49.244 100.032C49.459 99.8172 49.7325 99.7 50.0843 99.7C50.436 99.7 50.7291 99.8172 50.9246 100.032C51.12 100.247 51.2372 100.56 51.2372 100.951V102.318C51.2372 102.709 51.1395 103.022 50.9246 103.237C50.7291 103.452 50.436 103.569 50.0843 103.569ZM50.0843 103.042C50.2797 103.042 50.4165 102.983 50.5337 102.846C50.651 102.709 50.6901 102.533 50.6901 102.299V100.931C50.6901 100.697 50.6314 100.521 50.5337 100.384C50.436 100.247 50.2797 100.188 50.0843 100.188C49.8889 100.188 49.7325 100.247 49.6348 100.384C49.5371 100.521 49.4785 100.697 49.4785 100.931V102.299C49.4785 102.533 49.5371 102.709 49.6348 102.846C49.7325 102.983 49.8889 103.042 50.0843 103.042Z" fill="white"/>
<path d="M53.4845 103.569C53.1132 103.569 52.8396 103.452 52.6442 103.237C52.4488 103.022 52.3315 102.709 52.3315 102.318V100.951C52.3315 100.56 52.4292 100.247 52.6442 100.032C52.8592 99.8172 53.1327 99.7 53.4845 99.7C53.8362 99.7 54.1293 99.8172 54.3248 100.032C54.5202 100.247 54.6374 100.56 54.6374 100.951V102.318C54.6374 102.709 54.5397 103.022 54.3248 103.237C54.1293 103.452 53.8362 103.569 53.4845 103.569ZM53.4845 103.042C53.6799 103.042 53.8167 102.983 53.9339 102.846C54.0512 102.709 54.0903 102.533 54.0903 102.299V100.931C54.0903 100.697 54.0316 100.521 53.9339 100.384C53.8362 100.247 53.6799 100.188 53.4845 100.188C53.2891 100.188 53.1327 100.247 53.035 100.384C52.9373 100.521 52.8787 100.697 52.8787 100.931V102.299C52.8787 102.533 52.9373 102.709 53.035 102.846C53.1327 102.983 53.2891 103.042 53.4845 103.042Z" fill="white"/>
<path d="M56.3964 100.247V101.38H57.5298V101.869H56.3964V103.51H55.8492V99.7389H57.6275V100.247H56.3964Z" fill="white"/>
<path d="M59.2689 99.7389V103.51H58.7218V99.7389H59.2689Z" fill="white"/>
<path d="M62.8254 99.7389V103.51H62.2782L61.438 101.673C61.438 101.673 61.3793 101.517 61.3403 101.439C61.3012 101.361 61.2816 101.283 61.2426 101.204C61.2035 101.126 61.1839 101.048 61.1448 100.97C61.1058 100.892 61.0862 100.833 61.0667 100.755C61.0667 100.853 61.0667 100.97 61.0862 101.087C61.0862 101.204 61.0862 101.322 61.0862 101.439C61.0862 101.556 61.0862 101.673 61.0862 101.771C61.0862 101.888 61.0862 101.986 61.0862 102.064V103.51H60.5391V99.7389H61.0862L61.946 101.654C61.946 101.654 62.0047 101.791 62.0437 101.849C62.0828 101.928 62.1024 101.986 62.1415 102.064C62.1805 102.142 62.2001 102.201 62.2392 102.279C62.2587 102.357 62.2978 102.416 62.3173 102.475C62.3173 102.377 62.2978 102.26 62.2782 102.162C62.2782 102.045 62.2782 101.928 62.2587 101.83C62.2392 101.732 62.2587 101.595 62.2587 101.498C62.2587 101.4 62.2587 101.302 62.2587 101.204V99.7389H62.8059H62.8254Z" fill="white"/>
<path d="M65.1507 103.549C64.8185 103.549 64.5449 103.452 64.3299 103.256C64.115 103.061 64.0368 102.768 64.0368 102.377V100.853C64.0368 100.462 64.1345 100.169 64.3299 99.9734C64.5253 99.778 64.7989 99.6803 65.1311 99.6803C65.4633 99.6803 65.7369 99.778 65.9128 99.9734C66.1082 100.169 66.2059 100.462 66.2254 100.833H65.6783C65.6783 100.618 65.6197 100.462 65.5219 100.364C65.4242 100.267 65.2874 100.208 65.1116 100.208C64.9357 100.208 64.7989 100.267 64.7012 100.364C64.6035 100.462 64.5644 100.638 64.5644 100.872V102.397C64.5644 102.631 64.623 102.787 64.7208 102.905C64.8185 103.002 64.9552 103.061 65.1311 103.061C65.307 103.061 65.4633 103.002 65.561 102.905C65.6587 102.807 65.7174 102.651 65.7174 102.436V101.967H65.1116V101.478H66.245V102.436C66.245 102.807 66.1277 103.08 65.9323 103.295C65.7369 103.491 65.4633 103.589 65.1311 103.589L65.1507 103.549Z" fill="white"/>
<path d="M70.0164 103.569C69.6842 103.569 69.4106 103.471 69.2152 103.276C69.0198 103.08 68.9221 102.787 68.9221 102.397V100.853C68.9221 100.462 69.0198 100.169 69.2152 99.9734C69.4106 99.778 69.6842 99.6803 70.0164 99.6803C70.3486 99.6803 70.6222 99.778 70.8176 99.9734C71.013 100.169 71.1107 100.462 71.1302 100.833H70.5831C70.5831 100.618 70.5049 100.442 70.4072 100.345C70.3095 100.247 70.1727 100.188 69.9968 100.188C69.8405 100.188 69.7037 100.247 69.606 100.345C69.5083 100.442 69.4692 100.618 69.4692 100.853V102.397C69.4692 102.631 69.5083 102.787 69.606 102.885C69.7037 102.983 69.8405 103.041 69.9968 103.041C70.3681 103.041 70.5635 102.826 70.6026 102.416H71.1498C71.1498 102.787 71.0325 103.08 70.8371 103.276C70.6417 103.471 70.3681 103.569 70.0164 103.569Z" fill="white"/>
<path d="M73.2994 103.569C72.9281 103.569 72.6546 103.452 72.4591 103.237C72.2637 103.022 72.1465 102.709 72.1465 102.318V100.951C72.1465 100.56 72.2442 100.247 72.4591 100.032C72.6741 99.8172 72.9477 99.7 73.2994 99.7C73.6512 99.7 73.9443 99.8172 74.1397 100.032C74.3351 100.247 74.4524 100.56 74.4524 100.951V102.318C74.4524 102.709 74.3547 103.022 74.1397 103.237C73.9443 103.452 73.6512 103.569 73.2994 103.569ZM73.2994 103.042C73.4948 103.042 73.6316 102.983 73.7489 102.846C73.8661 102.709 73.9052 102.533 73.9052 102.299V100.931C73.9052 100.697 73.8466 100.521 73.7489 100.384C73.6512 100.247 73.4948 100.188 73.2994 100.188C73.104 100.188 72.9477 100.247 72.85 100.384C72.7523 100.521 72.6936 100.697 72.6936 100.931V102.299C72.6936 102.533 72.7523 102.709 72.85 102.846C72.9477 102.983 73.104 103.042 73.2994 103.042Z" fill="white"/>
<path d="M77.9112 99.7389V103.51H77.3641L76.5238 101.673C76.5238 101.673 76.4652 101.517 76.4261 101.439C76.387 101.361 76.3675 101.283 76.3284 101.204C76.2893 101.126 76.2698 101.048 76.2307 100.97C76.1916 100.892 76.1721 100.833 76.1525 100.755C76.1525 100.853 76.1525 100.97 76.1721 101.087C76.1721 101.204 76.1721 101.322 76.1721 101.439C76.1721 101.556 76.1721 101.673 76.1721 101.771C76.1721 101.888 76.1721 101.986 76.1721 102.064V103.51H75.6249V99.7389H76.1721L77.0319 101.654C77.0319 101.654 77.0905 101.791 77.1296 101.849C77.1687 101.928 77.1882 101.986 77.2273 102.064C77.2664 102.142 77.2859 102.201 77.325 102.279C77.3445 102.357 77.3836 102.416 77.4032 102.475C77.4032 102.377 77.3836 102.26 77.3641 102.162C77.3641 102.045 77.3641 101.928 77.3445 101.83C77.325 101.732 77.3445 101.595 77.3445 101.498C77.3445 101.4 77.3445 101.302 77.3445 101.204V99.7389H77.8917H77.9112Z" fill="white"/>
<path d="M81.0573 100.247H80.2757V103.491H79.7285V100.247H78.9469V99.7389H81.0573V100.247Z" fill="white"/>
<path d="M82.9921 102.123H82.6599V103.491H82.1127V99.7194H83.0898C83.4611 99.7194 83.7346 99.8171 83.93 100.032C84.1255 100.247 84.2232 100.521 84.2232 100.911C84.2232 101.205 84.1645 101.459 84.0473 101.654C83.93 101.849 83.7542 101.986 83.5392 102.064L84.36 103.51H83.7542L82.9921 102.142V102.123ZM82.6403 101.615H83.0507C83.2461 101.615 83.3829 101.556 83.4806 101.439C83.5783 101.322 83.6174 101.146 83.6174 100.931C83.6174 100.481 83.422 100.267 83.0507 100.267H82.6208V101.634L82.6403 101.615Z" fill="white"/>
<path d="M86.783 102.748H85.7864L85.6106 103.51H85.0439L85.9818 99.7389H86.5681L87.5061 103.51H86.9394L86.7635 102.748H86.783ZM86.6658 102.24L86.4313 101.224C86.4313 101.224 86.4117 101.087 86.3922 101.029L86.3531 100.814C86.3531 100.814 86.3336 100.677 86.314 100.599C86.2945 100.521 86.314 100.481 86.2945 100.423C86.2945 100.423 86.2945 100.54 86.275 100.599C86.275 100.657 86.275 100.735 86.2359 100.814C86.1968 100.892 86.2163 100.97 86.1968 101.029C86.1773 101.087 86.1772 101.165 86.1577 101.224L85.9232 102.24H86.6853H86.6658Z" fill="white"/>
<path d="M89.4991 103.569C89.1669 103.569 88.8933 103.471 88.6979 103.276C88.5025 103.08 88.4048 102.787 88.4048 102.397V100.853C88.4048 100.462 88.5025 100.169 88.6979 99.9734C88.8933 99.778 89.1669 99.6803 89.4991 99.6803C89.8313 99.6803 90.1049 99.778 90.3003 99.9734C90.4957 100.169 90.5934 100.462 90.613 100.833H90.0658C90.0658 100.618 89.9876 100.442 89.8899 100.345C89.7922 100.247 89.6554 100.188 89.4796 100.188C89.3232 100.188 89.1864 100.247 89.0887 100.345C88.991 100.442 88.9519 100.618 88.9519 100.853V102.397C88.9519 102.631 88.991 102.787 89.0887 102.885C89.1864 102.983 89.3232 103.041 89.4796 103.041C89.8508 103.041 90.0463 102.826 90.0853 102.416H90.6325C90.6325 102.787 90.5152 103.08 90.3198 103.276C90.1244 103.471 89.8508 103.569 89.4991 103.569Z" fill="white"/>
<path d="M93.5835 100.247H92.8019V103.491H92.2547V100.247H91.4731V99.7389H93.5835V100.247Z" fill="white"/>
<path d="M95.6547 103.569C95.2834 103.569 95.0098 103.452 94.8144 103.237C94.619 103.022 94.5018 102.709 94.5018 102.318V100.951C94.5018 100.56 94.5995 100.247 94.8144 100.032C95.0294 99.8172 95.303 99.7 95.6547 99.7C96.0065 99.7 96.2996 99.8172 96.495 100.032C96.6904 100.247 96.8076 100.56 96.8076 100.951V102.318C96.8076 102.709 96.7099 103.022 96.495 103.237C96.2996 103.452 96.0065 103.569 95.6547 103.569ZM95.6547 103.042C95.8501 103.042 95.9869 102.983 96.1042 102.846C96.2214 102.709 96.2605 102.533 96.2605 102.299V100.931C96.2605 100.697 96.2019 100.521 96.1042 100.384C96.0065 100.247 95.8501 100.188 95.6547 100.188C95.4593 100.188 95.303 100.247 95.2053 100.384C95.1076 100.521 95.0489 100.697 95.0489 100.931V102.299C95.0489 102.533 95.1076 102.709 95.2053 102.846C95.303 102.983 95.4593 103.042 95.6547 103.042Z" fill="white"/>
<path d="M98.9181 102.123H98.5859V103.491H98.0388V99.7194H99.0158C99.3871 99.7194 99.6607 99.8171 99.8561 100.032C100.052 100.247 100.149 100.521 100.149 100.911C100.149 101.205 100.091 101.459 99.9733 101.654C99.8561 101.849 99.6802 101.986 99.4653 102.064L100.286 103.51H99.6802L98.9181 102.142V102.123ZM98.5664 101.615H98.9767C99.1722 101.615 99.3089 101.556 99.4067 101.439C99.5044 101.322 99.5434 101.146 99.5434 100.931C99.5434 100.481 99.348 100.267 98.9767 100.267H98.5468V101.634L98.5664 101.615Z" fill="white"/>
<path d="M102.181 103.569C101.849 103.569 101.576 103.471 101.38 103.276C101.185 103.081 101.087 102.807 101.087 102.455H101.634C101.634 102.651 101.693 102.787 101.791 102.885C101.888 102.983 102.025 103.022 102.181 103.022C102.357 103.022 102.494 102.983 102.592 102.885C102.689 102.787 102.729 102.67 102.729 102.514C102.729 102.397 102.689 102.279 102.611 102.182C102.533 102.084 102.435 102.006 102.318 101.928C102.201 101.849 102.064 101.771 101.947 101.693C101.83 101.615 101.693 101.517 101.576 101.419C101.458 101.322 101.361 101.205 101.283 101.068C101.204 100.931 101.165 100.775 101.165 100.599C101.165 100.462 101.185 100.345 101.243 100.227C101.283 100.11 101.361 100.013 101.458 99.9344C101.556 99.8562 101.654 99.778 101.791 99.7389C101.908 99.6999 102.064 99.6608 102.22 99.6608C102.553 99.6608 102.807 99.7585 102.983 99.9539C103.158 100.149 103.256 100.403 103.276 100.716H102.729C102.729 100.54 102.67 100.403 102.592 100.306C102.514 100.208 102.396 100.169 102.24 100.169C102.084 100.169 101.966 100.208 101.888 100.286C101.81 100.364 101.771 100.482 101.771 100.599C101.771 100.716 101.81 100.833 101.888 100.911C101.966 100.99 102.064 101.087 102.181 101.165C102.299 101.244 102.416 101.322 102.553 101.4C102.689 101.478 102.807 101.556 102.924 101.654C103.041 101.752 103.139 101.869 103.217 102.006C103.295 102.143 103.334 102.299 103.334 102.494C103.334 102.631 103.315 102.768 103.256 102.885C103.198 103.002 103.139 103.12 103.041 103.217C102.944 103.315 102.826 103.393 102.689 103.452C102.553 103.51 102.396 103.53 102.22 103.53L102.181 103.569Z" fill="white"/>
<path d="M107.38 102.748H106.383L106.207 103.51H105.64L106.578 99.7389H107.165L108.103 103.51H107.536L107.36 102.748H107.38ZM107.282 102.24L107.047 101.224C107.047 101.224 107.028 101.087 107.008 101.029L106.969 100.814C106.969 100.814 106.95 100.677 106.93 100.599C106.911 100.521 106.93 100.481 106.911 100.423C106.911 100.423 106.911 100.54 106.891 100.599C106.891 100.657 106.891 100.735 106.852 100.814C106.813 100.892 106.832 100.97 106.813 101.029C106.793 101.087 106.793 101.165 106.774 101.224L106.539 102.24H107.301H107.282Z" fill="white"/>
<path d="M109.998 103.569C109.666 103.569 109.392 103.471 109.197 103.276C109.002 103.081 108.904 102.807 108.904 102.455H109.451C109.451 102.651 109.51 102.787 109.607 102.885C109.705 102.983 109.842 103.022 109.998 103.022C110.174 103.022 110.311 102.983 110.408 102.885C110.506 102.787 110.545 102.67 110.545 102.514C110.545 102.397 110.506 102.279 110.428 102.182C110.35 102.084 110.252 102.006 110.135 101.928C110.018 101.849 109.881 101.771 109.764 101.693C109.646 101.615 109.51 101.517 109.392 101.419C109.275 101.322 109.177 101.205 109.099 101.068C109.021 100.931 108.982 100.775 108.982 100.599C108.982 100.462 109.002 100.345 109.06 100.227C109.099 100.11 109.177 100.013 109.275 99.9344C109.373 99.8562 109.471 99.778 109.607 99.7389C109.725 99.6999 109.881 99.6608 110.037 99.6608C110.369 99.6608 110.623 99.7585 110.799 99.9539C110.975 100.149 111.073 100.403 111.092 100.716H110.545C110.545 100.54 110.487 100.403 110.408 100.306C110.33 100.208 110.213 100.169 110.057 100.169C109.9 100.169 109.783 100.208 109.705 100.286C109.627 100.364 109.588 100.482 109.588 100.599C109.588 100.716 109.627 100.833 109.705 100.911C109.783 100.99 109.881 101.087 109.998 101.165C110.115 101.244 110.233 101.322 110.369 101.4C110.506 101.478 110.623 101.556 110.741 101.654C110.858 101.752 110.956 101.869 111.034 102.006C111.112 102.143 111.151 102.299 111.151 102.494C111.151 102.631 111.132 102.768 111.073 102.885C111.014 103.002 110.956 103.12 110.858 103.217C110.76 103.315 110.643 103.393 110.506 103.452C110.369 103.51 110.213 103.53 110.037 103.53L109.998 103.569Z" fill="white"/>
<path d="M113.066 103.569C112.734 103.569 112.46 103.471 112.265 103.276C112.069 103.081 111.972 102.807 111.972 102.455H112.519C112.519 102.651 112.578 102.787 112.675 102.885C112.773 102.983 112.91 103.022 113.066 103.022C113.242 103.022 113.379 102.983 113.476 102.885C113.574 102.787 113.613 102.67 113.613 102.514C113.613 102.397 113.574 102.279 113.496 102.182C113.418 102.084 113.32 102.006 113.203 101.928C113.086 101.849 112.949 101.771 112.832 101.693C112.714 101.615 112.578 101.517 112.46 101.419C112.343 101.322 112.245 101.205 112.167 101.068C112.089 100.931 112.05 100.775 112.05 100.599C112.05 100.462 112.069 100.345 112.128 100.227C112.167 100.11 112.245 100.013 112.343 99.9344C112.441 99.8562 112.538 99.778 112.675 99.7389C112.793 99.6999 112.949 99.6608 113.105 99.6608C113.437 99.6608 113.691 99.7585 113.867 99.9539C114.043 100.149 114.141 100.403 114.16 100.716H113.613C113.613 100.54 113.555 100.403 113.476 100.306C113.398 100.208 113.281 100.169 113.125 100.169C112.968 100.169 112.851 100.208 112.773 100.286C112.695 100.364 112.656 100.482 112.656 100.599C112.656 100.716 112.695 100.833 112.773 100.911C112.851 100.99 112.949 101.087 113.066 101.165C113.183 101.244 113.301 101.322 113.437 101.4C113.574 101.478 113.691 101.556 113.809 101.654C113.926 101.752 114.024 101.869 114.102 102.006C114.18 102.143 114.219 102.299 114.219 102.494C114.219 102.631 114.199 102.768 114.141 102.885C114.082 103.002 114.024 103.12 113.926 103.217C113.828 103.315 113.711 103.393 113.574 103.452C113.437 103.51 113.281 103.53 113.105 103.53L113.066 103.569Z" fill="white"/>
<path d="M116.31 103.569C115.939 103.569 115.665 103.452 115.47 103.237C115.274 103.022 115.157 102.709 115.157 102.318V100.951C115.157 100.56 115.255 100.247 115.47 100.032C115.685 99.8172 115.958 99.7 116.31 99.7C116.662 99.7 116.955 99.8172 117.15 100.032C117.346 100.247 117.463 100.56 117.463 100.951V102.318C117.463 102.709 117.365 103.022 117.15 103.237C116.955 103.452 116.662 103.569 116.31 103.569ZM116.31 103.042C116.505 103.042 116.642 102.983 116.759 102.846C116.877 102.709 116.916 102.533 116.916 102.299V100.931C116.916 100.697 116.857 100.521 116.759 100.384C116.662 100.247 116.505 100.188 116.31 100.188C116.114 100.188 115.958 100.247 115.86 100.384C115.763 100.521 115.704 100.697 115.704 100.931V102.299C115.704 102.533 115.763 102.709 115.86 102.846C115.958 102.983 116.114 103.042 116.31 103.042Z" fill="white"/>
<path d="M119.671 103.569C119.339 103.569 119.065 103.471 118.87 103.276C118.674 103.08 118.577 102.787 118.577 102.397V100.853C118.577 100.462 118.674 100.169 118.87 99.9734C119.065 99.778 119.339 99.6803 119.671 99.6803C120.003 99.6803 120.277 99.778 120.472 99.9734C120.668 100.169 120.765 100.462 120.785 100.833H120.238C120.238 100.618 120.16 100.442 120.062 100.345C119.964 100.247 119.827 100.188 119.652 100.188C119.495 100.188 119.358 100.247 119.261 100.345C119.163 100.442 119.124 100.618 119.124 100.853V102.397C119.124 102.631 119.163 102.787 119.261 102.885C119.358 102.983 119.495 103.041 119.652 103.041C120.023 103.041 120.218 102.826 120.257 102.416H120.804C120.804 102.787 120.687 103.08 120.492 103.276C120.296 103.471 120.023 103.569 119.671 103.569Z" fill="white"/>
<path d="M122.446 99.7389V103.51H121.899V99.7389H122.446Z" fill="white"/>
<path d="M125.162 102.748H124.166L123.99 103.51H123.423L124.361 99.7389H124.947L125.885 103.51H125.319L125.143 102.748H125.162ZM125.064 102.24L124.83 101.224C124.83 101.224 124.81 101.087 124.791 101.029L124.752 100.814C124.752 100.814 124.732 100.677 124.713 100.599C124.693 100.521 124.713 100.481 124.693 100.423C124.693 100.423 124.693 100.54 124.674 100.599C124.674 100.657 124.674 100.735 124.635 100.814C124.596 100.892 124.615 100.97 124.596 101.029C124.576 101.087 124.576 101.165 124.556 101.224L124.322 102.24H125.084H125.064Z" fill="white"/>
<path d="M128.738 100.247H127.957V103.491H127.409V100.247H126.628V99.7389H128.738V100.247Z" fill="white"/>
<path d="M130.321 99.7389V103.51H129.774V99.7389H130.321Z" fill="white"/>
<path d="M132.686 103.569C132.314 103.569 132.041 103.452 131.845 103.237C131.65 103.022 131.533 102.709 131.533 102.318V100.951C131.533 100.56 131.63 100.247 131.845 100.032C132.06 99.8172 132.334 99.7 132.686 99.7C133.037 99.7 133.331 99.8172 133.526 100.032C133.721 100.247 133.839 100.56 133.839 100.951V102.318C133.839 102.709 133.741 103.022 133.526 103.237C133.331 103.452 133.037 103.569 132.686 103.569ZM132.686 103.042C132.881 103.042 133.018 102.983 133.135 102.846C133.252 102.709 133.291 102.533 133.291 102.299V100.931C133.291 100.697 133.233 100.521 133.135 100.384C133.037 100.247 132.881 100.188 132.686 100.188C132.49 100.188 132.334 100.247 132.236 100.384C132.138 100.521 132.08 100.697 132.08 100.931V102.299C132.08 102.533 132.138 102.709 132.236 102.846C132.334 102.983 132.49 103.042 132.686 103.042Z" fill="white"/>
<path d="M137.297 99.7389V103.51H136.75L135.91 101.673C135.91 101.673 135.851 101.517 135.812 101.439C135.773 101.361 135.753 101.283 135.714 101.204C135.675 101.126 135.656 101.048 135.617 100.97C135.578 100.892 135.558 100.833 135.538 100.755C135.538 100.853 135.538 100.97 135.558 101.087C135.558 101.204 135.558 101.322 135.558 101.439C135.558 101.556 135.558 101.673 135.558 101.771C135.558 101.888 135.558 101.986 135.558 102.064V103.51H135.011V99.7389H135.558L136.418 101.654C136.418 101.654 136.476 101.791 136.516 101.849C136.555 101.928 136.574 101.986 136.613 102.064C136.652 102.142 136.672 102.201 136.711 102.279C136.73 102.357 136.77 102.416 136.789 102.475C136.789 102.377 136.77 102.26 136.75 102.162C136.75 102.045 136.75 101.928 136.73 101.83C136.711 101.732 136.73 101.595 136.73 101.498C136.73 101.4 136.73 101.302 136.73 101.204V99.7389H137.278H137.297Z" fill="white"/>
</svg>
