<svg width="195" height="127" viewBox="0 0 195 127" fill="none" xmlns="http://www.w3.org/2000/svg">
<g clip-path="url(#clip0_180_1009)">
<path d="M68.2459 29.3025L73.1146 34.1975L97.4917 9.77315L121.869 34.1975L126.754 29.3025L97.4917 7.24461e-06L68.2459 29.3025Z" fill="#FEFEFE"/>
<path d="M97.4916 19.5464L78 39.0757L82.8687 43.9538L97.4915 29.3026L112.114 43.9538L117 39.0757L97.4916 19.5464Z" fill="#FEFEFE"/>
<path d="M92.6227 53.7269L97.4914 58.622L102.377 53.7269L107.246 48.8488L97.4914 39.0757L87.7541 48.8488L92.6227 53.7269Z" fill="#FEFEFE"/>
<path d="M39.0002 68.3781L63.3773 43.9537L87.7544 68.3781L92.6231 63.5L63.3773 34.1975L34.1146 63.5L39.0002 68.3781Z" fill="#FEFEFE"/>
<path d="M63.3771 63.5L78 78.1512L82.8687 73.2731L63.3771 53.7268L43.8687 73.2731L48.7373 78.1512L63.3771 63.5Z" fill="#FEFEFE"/>
<path d="M73.1143 83.0463L63.3769 73.2732L53.6227 83.0463L58.4914 87.9244L63.3769 92.8025L68.2456 87.9244L73.1143 83.0463Z" fill="#FEFEFE"/>
<path d="M131.623 43.9537L156 68.3781L160.869 63.5L131.623 34.1975L102.377 63.5L107.246 68.3781L131.623 43.9537Z" fill="#FEFEFE"/>
<path d="M131.623 63.5L146.246 78.1512L151.131 73.2731L131.623 53.7268L112.114 73.2731L117 78.1512L131.623 63.5Z" fill="#FEFEFE"/>
<path d="M141.377 83.0463L131.623 73.2732L121.869 83.0463L126.754 87.9244L131.623 92.8025L136.491 87.9244L141.377 83.0463Z" fill="#FEFEFE"/>
<path d="M68.2459 97.6976L73.1146 102.576L97.4917 78.1513L121.869 102.576L126.754 97.6976L97.4917 68.3782L68.2459 97.6976Z" fill="#FEFEFE"/>
<path d="M97.4916 87.9243L78 107.454L82.8687 112.349L97.4915 97.6975L112.114 112.349L117 107.454L97.4916 87.9243Z" fill="#FEFEFE"/>
<path d="M92.6227 122.122L97.4914 127L102.377 122.122L107.246 117.227L97.4914 107.454L87.7541 117.227L92.6227 122.122Z" fill="#FEFEFE"/>
<path d="M136.492 97.6976L141.377 102.576L165.754 78.1513L190.131 102.576L195 97.6976L165.754 68.3782L136.492 97.6976Z" fill="#FEFEFE"/>
<path d="M165.754 97.6975L180.377 112.349L185.246 107.454L165.754 87.9243L146.246 107.454L151.131 112.349L165.754 97.6975Z" fill="#FEFEFE"/>
<path d="M175.492 117.227L165.754 107.454L156 117.227L160.869 122.122L165.754 127L170.623 122.122L175.492 117.227Z" fill="#FEFEFE"/>
<path d="M0.000160672 97.6976L4.86882 102.576L29.2459 78.1513L53.623 102.576L58.4917 97.6976L29.2459 68.3782L0.000160672 97.6976Z" fill="#FEFEFE"/>
<path d="M29.2458 97.6975L43.8686 112.349L48.7373 107.454L29.2458 87.9243L9.73731 107.454L14.6229 112.349L29.2458 97.6975Z" fill="#FEFEFE"/>
<path d="M39 117.227L29.2458 107.454L19.4916 117.227L24.3771 122.122L29.2458 127L34.1144 122.122L39 117.227Z" fill="#FEFEFE"/>
</g>
<defs>
<clipPath id="clip0_180_1009">
<rect width="127" height="195" fill="white" transform="translate(195 8.52372e-06) rotate(90)"/>
</clipPath>
</defs>
</svg>
