<svg width="1440" height="530" viewBox="0 0 1440 530" fill="none" xmlns="http://www.w3.org/2000/svg">
<g filter="url(#filter0_g_180_1101)">
<path d="M4.70389 362.462C1.56796 376.106 -1.56796 389.75 -4.70389 403.395C74.3861 419.477 154.784 406.969 225.822 372.419C282.738 344.523 331.082 300.161 365.572 247.668C377.177 229.311 388.678 212.916 394.538 186.652C395.58 179.606 397.016 171.386 392 159.61C389.745 154.42 384.732 148.43 379.353 145.198C374.483 142.074 368.642 140.404 364.443 139.798C346.705 137.845 336.363 142.057 325.24 145.691C283.49 161.888 250.542 186.812 219.554 214.167C162.576 268.234 93.8594 345.526 125.713 442.723C140.367 487.462 195.366 500.398 229.164 495.023C265.465 491.15 298.09 479.392 329.371 466.117C391.86 438.884 448.482 403.679 502.878 365.133C606.416 282.773 725.016 212.277 768.456 61.3181C768.569 51.7709 768.125 42.6945 762.345 31.439C756.657 19.782 742.483 11.3804 731.61 10.1509C709.789 7.58196 695.866 13.9029 682.13 19.1757C655.158 30.7595 632.428 45.9836 610.432 61.9898C566.673 94.3811 527.501 130.996 491.146 170.563C455.008 210.264 421.599 252.879 394.976 300.917C370.695 348.156 341.238 407.121 371.72 470.438C421.034 537.78 492.918 517.72 546.538 512.998C603.633 503.83 657.064 487.789 710.037 468.953C815.476 430.748 916.455 381.708 1010.98 321.303C1067.38 284.266 1123.39 245.741 1168.06 189.777C1186.84 164.236 1209.18 131.445 1200.01 88.2665C1195.94 73.2199 1190.72 57.7426 1173.12 44.8685C1155.37 32.5676 1134.37 34.3925 1119.75 38.8308C1090.75 48.107 1070.33 64.5674 1050.76 81.0895C1012.21 114.964 980.892 153.251 952.336 193.782C924.071 234.522 898.993 277.174 880.319 324.672C871.282 348.453 863.442 373.161 862.043 401.317C861.53 414.894 862.726 431 870.051 446.192C877.363 462.016 892.586 474.483 908.565 479.493C965.201 496.424 1010.21 463.247 1044.99 437.666C1080.44 410.072 1111.26 379.211 1142.03 348.829C1177.53 313.648 1210.95 277.179 1247.01 243.941C1298.46 196.841 1366.91 144.919 1439.79 175.201C1439.93 174.899 1440.07 174.597 1440.21 174.296C1370.59 135.505 1287.45 179.22 1229.27 222.322C1188.12 252.609 1151.04 287.033 1115.39 321.736C1056.01 376.93 985.365 457.424 921.474 441.288C892.916 435.316 902.188 380.033 919.013 339.821C936.148 297.132 960.211 256.582 987.191 218.304C1014.35 180.203 1044.65 143.933 1079.15 113.958C1096.12 99.3871 1115.33 85.7564 1132.07 80.7785C1140.81 78.2322 1145.86 79.1614 1148.24 80.954C1151.2 82.8578 1155.03 88.9361 1157.38 98.7742C1162.12 115.879 1149.94 141.582 1133.19 162.945C1095.37 210.7 1042.48 250.622 988.226 286.001C897.024 344.321 797.98 392.451 695.87 429.415C644.652 447.654 592.99 463.028 540.04 471.504C490.584 479.526 425.156 480.97 408.601 450.343C377.962 372.878 458.281 271.211 522.135 198.912C556.757 161.202 594.497 126.014 635.309 95.8297C655.615 80.9715 677.031 66.999 698.375 57.9067C708.556 53.4679 720.456 50.6554 724.94 51.618C725.385 51.6873 725.753 51.7916 725.879 51.8399C726.016 51.8906 725.965 51.8838 725.851 51.8073C725.59 51.6687 725.24 51.177 725.398 51.4132C725.455 51.5178 725.581 51.7742 725.731 52.2467C725.881 52.7056 726.057 53.4644 726.161 54.1136C726.394 55.5215 726.55 57.5249 726.474 60.0947C697.649 163.97 577.726 256.651 478.499 330.933C425.94 368.219 370.96 402.217 312.767 427.539C258.723 451.431 179.094 472.048 164.854 427.492C141.616 366.455 193.8 294.08 247.673 245.365C275.351 220.631 307.54 197.377 339.529 185.186C347.151 182.286 355.845 180.771 358.091 181.315C358.522 181.375 358.045 181.404 356.96 180.731C355.804 180.086 354.274 178.261 353.873 177.226C353.622 176.685 353.52 176.278 353.489 176.122C353.46 175.968 353.485 176.058 353.491 176.272C353.499 176.494 353.497 176.881 353.448 177.425C353.425 177.697 353.389 178.012 353.34 178.355C353.302 178.623 353.256 178.913 353.2 179.225C350.875 191.252 341.002 208.705 330.556 224.477C299.586 271.524 257.276 310.179 207.204 334.771C145.344 365.306 70.8054 376.157 4.70389 362.462Z" fill="url(#paint0_linear_180_1101)"/>
</g>
<defs>
<filter id="filter0_g_180_1101" x="-14.2641" y="5.81741e-05" width="1464.04" height="529.02" filterUnits="userSpaceOnUse" color-interpolation-filters="sRGB">
<feFlood flood-opacity="0" result="BackgroundImageFix"/>
<feBlend mode="normal" in="SourceGraphic" in2="BackgroundImageFix" result="shape"/>
<feTurbulence type="fractalNoise" baseFrequency="0.71942448616027832 0.71942448616027832" numOctaves="3" seed="7115" />
<feDisplacementMap in="shape" scale="19.120000839233398" xChannelSelector="R" yChannelSelector="G" result="displacedImage" width="100%" height="100%" />
<feMerge result="effect1_texture_180_1101">
<feMergeNode in="displacedImage"/>
</feMerge>
</filter>
<linearGradient id="paint0_linear_180_1101" x1="0" y1="267.43" x2="1440" y2="267.43" gradientUnits="userSpaceOnUse">
<stop offset="0.134615" stop-color="#021A25"/>
<stop offset="0.663462" stop-color="#02364D"/>
<stop offset="1" stop-color="#044866"/>
</linearGradient>
</defs>
</svg>
