<svg width="150" height="86" viewBox="0 0 150 86" fill="none" xmlns="http://www.w3.org/2000/svg">
<g clip-path="url(#clip0_191_1397)">
<path d="M0 0H53.5714L73.2154 19.7095V86L53.5714 65.3969H0V0Z" fill="#F47171"/>
<path d="M0 65.397L53.5714 0H0V65.397Z" fill="#FFD7D7"/>
<path d="M53.5713 65.397L73.2153 19.7095V86L53.5713 65.397Z" fill="#FFD7D7"/>
<path d="M150 0H96.4286L76.7847 19.7095V86L96.4286 65.3969H150V0Z" fill="#F47171"/>
<path d="M150 65.397L96.4287 0H150V65.397Z" fill="#FFD7D7"/>
<path d="M96.4286 65.397L76.7847 19.7095V86L96.4286 65.397Z" fill="#FFD7D7"/>
<path d="M81.7466 86L98.7086 68.978H150V86H81.7466Z" fill="#F47171"/>
<path d="M93.2041 74.5043H150V72.4148H95.2867L93.2041 74.5043Z" fill="#FFD7D7"/>
<path d="M88.5903 79.1334H150V77.0405H90.6729L88.5903 79.1334Z" fill="#FFD7D7"/>
<path d="M83.9663 83.7592H150V81.6697H86.0489L83.9663 83.7592Z" fill="#FFD7D7"/>
<path d="M68.2533 86L51.2913 68.978H0V86H68.2533Z" fill="#F47171"/>
<path d="M56.7958 74.5043H0V72.4148H54.7132L56.7958 74.5043Z" fill="#FFD7D7"/>
<path d="M61.4096 79.1334H0V77.0405H59.327L61.4096 79.1334Z" fill="#FFD7D7"/>
<path d="M66.0335 83.7592H0V81.6697H63.9509L66.0335 83.7592Z" fill="#FFD7D7"/>
</g>
<defs>
<clipPath id="clip0_191_1397">
<rect width="150" height="86" fill="white"/>
</clipPath>
</defs>
</svg>
