<svg width="151" height="147" viewBox="0 0 151 147" fill="none" xmlns="http://www.w3.org/2000/svg">
<g clip-path="url(#clip0_191_1359)">
<path d="M14.7446 147L35.9179 111.407H14.7446V147Z" fill="#F47171"/>
<path d="M35.9179 111.407L14.7446 147H35.9179V111.407Z" fill="#FFD7D7"/>
<path d="M67.3799 147L88.5569 111.407H67.3799V147Z" fill="#F47171"/>
<path d="M88.5569 111.407L67.3799 147H88.5569V111.407Z" fill="#FFD7D7"/>
<path d="M115.082 147L136.255 111.407H115.082V147Z" fill="#F47171"/>
<path d="M136.255 111.407L115.082 147H136.255V111.407Z" fill="#FFD7D7"/>
<path d="M0 104.724V83.9438H151L0 104.724Z" fill="#FFD7D7"/>
<path d="M151 83.9438V104.724H0L151 83.9438Z" fill="#F47171"/>
<path d="M151 40.239L75.5 0L0 37.1072V74.2143L151 40.239Z" fill="#F47171"/>
<path d="M0 74.2143H151V40.239L0 74.2143Z" fill="#FFD7D7"/>
</g>
<defs>
<clipPath id="clip0_191_1359">
<rect width="151" height="147" fill="white"/>
</clipPath>
</defs>
</svg>
