<svg width="130" height="130" viewBox="0 0 130 130" fill="none" xmlns="http://www.w3.org/2000/svg">
<g clip-path="url(#clip0_191_1423)">
<path d="M64.9999 94.7842L39.5176 130H90.4822L64.9999 94.7842Z" fill="#F47171"/>
<path d="M43.9395 86.0603L1.02051 92.9431L37.0567 128.979L43.9395 86.0603Z" fill="#FFD7D7"/>
<path d="M35.2159 64.9999L0 39.5176V90.4822L35.2159 64.9999Z" fill="#F47171"/>
<path d="M43.9395 43.9397L37.0567 1.02075L1.02051 37.0569L43.9395 43.9397Z" fill="#FFD7D7"/>
<path d="M64.9999 35.2159L90.4822 0H39.5176L64.9999 35.2159Z" fill="#F47171"/>
<path d="M86.0601 43.9397L128.979 37.0569L92.9428 1.02075L86.0601 43.9397Z" fill="#FFD7D7"/>
<path d="M94.7842 64.9999L130 90.4822V39.5176L94.7842 64.9999Z" fill="#F47171"/>
<path d="M86.0601 86.0603L92.9428 128.979L128.979 92.9431L86.0601 86.0603Z" fill="#FFD7D7"/>
</g>
<defs>
<clipPath id="clip0_191_1423">
<rect width="130" height="130" fill="white"/>
</clipPath>
</defs>
</svg>
