<svg width="155" height="132" viewBox="0 0 155 132" fill="none" xmlns="http://www.w3.org/2000/svg">
<g clip-path="url(#clip0_191_1336)">
<path d="M31.8333 87.9993L0 132H63.6667L31.8333 87.9993Z" fill="#FFD7D7"/>
<path d="M95.4998 87.9993L63.6665 132H127.333L95.4998 87.9993Z" fill="#FFD7D7"/>
<path d="M159.167 87.9993L127.333 132H191L159.167 87.9993Z" fill="#FFD7D7"/>
<path d="M127.333 44.0007L95.5 87.9994H159.167L127.333 44.0007Z" fill="#FFD7D7"/>
<path d="M95.4998 0L63.6665 44.0007H127.333L95.4998 0Z" fill="#FFD7D7"/>
<path d="M63.6668 44.0007L31.8335 87.9994H95.5002L63.6668 44.0007Z" fill="#FFD7D7"/>
<path d="M95.4998 87.9994L127.333 44.0007H63.6665L95.4998 87.9994Z" fill="#F47171"/>
<path d="M127.333 132L159.167 87.9993H95.5L127.333 132Z" fill="#F47171"/>
<path d="M63.6668 132L95.5002 87.9993H31.8335L63.6668 132Z" fill="#F47171"/>
</g>
<defs>
<clipPath id="clip0_191_1336">
<rect width="191" height="132" fill="white"/>
</clipPath>
</defs>
</svg>
